<svg width="18" height="18" viewBox="0 0 18 18" fill="none" xmlns="http://www.w3.org/2000/svg">
<path fill-rule="evenodd" clip-rule="evenodd" d="M3.76772 2.19131L1 3.38006V9.95429V16.5285L1.09607 16.6427C1.29332 16.8771 1.19988 16.9069 3.91311 15.7434C5.27284 15.1603 6.43224 14.6652 6.48959 14.6432C6.5854 14.6063 6.78786 14.7 8.99172 15.8015L11.3896 17L14.1884 15.8011L16.9871 14.6021V8.02785V1.45357L16.8911 1.33941C16.6936 1.10471 16.7909 1.07345 14.0364 2.25634C12.6561 2.84914 11.4915 3.34182 11.4485 3.35116C11.3975 3.36223 10.5469 2.9564 8.99994 2.18282C7.6962 1.53088 6.60833 0.998614 6.58247 1C6.55661 1.00139 5.28999 1.53749 3.76772 2.19131ZM12.6811 7.64903L13.1787 7.15246L13.6004 7.57413L14.0221 7.99583L13.5255 8.49346L13.0289 8.99105L13.5255 9.48864L14.0221 9.98627L13.6004 10.408L13.1787 10.8296L12.6811 10.3331L12.1835 9.83649L11.6857 10.3333L11.1879 10.8301L10.785 10.426C10.5634 10.2037 10.3821 10.0055 10.3821 9.98548C10.3821 9.96544 10.5972 9.73351 10.8601 9.47006L11.338 8.99105L10.8601 8.51204C10.5972 8.24859 10.3821 8.01666 10.3821 7.99662C10.3821 7.97662 10.5634 7.77839 10.785 7.55615L11.1879 7.15201L11.6857 7.64881L12.1835 8.14561L12.6811 7.64903ZM5.80364 8.99105V9.77915H4.99678H4.18992V8.99105V8.20295H4.99678H5.80364V8.99105ZM8.99356 8.99105V9.77915H8.1867H7.37984V8.99105V8.20295H8.1867H8.99356V8.99105Z" fill="black"/>
</svg>
