<svg width="328" height="328" viewBox="0 0 328 328" fill="none" xmlns="http://www.w3.org/2000/svg">
<mask id="mask0_3388_5669" style="mask-type:alpha" maskUnits="userSpaceOnUse" x="0" y="0" width="328" height="328">
<circle cx="164" cy="164" r="164" fill="#D9D9D9"/>
</mask>
<g mask="url(#mask0_3388_5669)">
<circle cx="164" cy="164" r="164" fill="#D9D9D9"/>
<path fill-rule="evenodd" clip-rule="evenodd" d="M151.144 21.8244C147.867 22.8259 144.435 24.3472 143.519 25.2057C140.432 28.0962 136.389 39.3942 132.895 54.8913C132.68 55.8501 133.213 57.6575 134.167 59.1961C135.294 61.0148 135.671 62.4964 135.366 63.9098C135.058 65.336 135.593 67.3802 137.097 70.5367C138.294 73.0468 139.852 77.0916 140.56 79.5253C141.268 81.9582 142.632 85.8758 143.589 88.2308L145.332 92.5123L141.45 94.8838C139.316 96.1879 136.454 98.2261 135.091 99.4126C131.745 102.325 123.409 106.428 116.271 108.677C105.56 112.051 102.075 115.041 76.3356 142.948C65.22 155 58.063 165.131 57.1187 170.15C56.7565 172.075 57.1855 173.827 58.9308 177.546C62.6347 185.437 66.6317 190.75 88.9695 217.485C102.522 233.706 103.041 234.209 107.969 235.903C114.87 238.276 115.612 239.675 110.633 240.925C108.836 241.377 105.473 243.226 103.162 245.034C98.0085 249.067 86.1243 262.485 86.113 264.283C86.1063 265.374 86.799 265.594 90.237 265.594C92.5097 265.594 94.3691 265.86 94.3691 266.185C94.3691 266.509 93.693 268.097 92.8665 269.714C91.0243 273.317 90.8072 275.574 92.5112 273.415C93.5705 272.072 93.6216 272.234 93.1761 275.526C92.442 280.952 94.7628 282.704 99.478 280.282C101.492 279.247 101.507 279.259 101.652 281.934C101.949 287.456 102.363 288.065 105.815 288.065C107.964 288.065 109.453 288.544 110.496 289.571C111.337 290.4 112.785 291.664 113.715 292.38C115.32 293.619 115.424 294.334 115.823 306.792C116.385 324.382 118.062 336.76 124.343 369.712C124.727 371.725 124.469 372.889 123.233 374.721C121.06 377.943 120.361 383.648 121.684 387.381C122.254 388.992 124.675 393.513 127.064 397.427C131.929 405.4 134.181 411.002 134.205 415.198C134.214 416.753 134.89 421.042 135.708 424.729C137.6 433.266 137.579 434.356 135.503 435.264C133.337 436.211 132.967 439.804 134.181 448.103C134.995 453.672 134.946 454.501 133.618 457.491C131.98 461.185 128.082 464.841 125.783 464.841C123.578 464.841 115.563 469.274 113.855 471.439C110.588 475.58 113.124 479.993 119.533 481.32C125.877 482.633 135.65 482.538 138.342 481.138C139.593 480.488 142.768 477.759 145.396 475.075C150.666 469.693 152.598 468.833 156.364 470.191C158.707 471.036 159.327 470.885 164.76 468.16L170.627 465.216L170.858 460.722C170.985 458.25 170.519 453.813 169.822 450.863C168.816 446.603 168.73 444.998 169.403 443.073C170.453 440.07 170.509 435.127 169.5 434.505C169.087 434.25 168.745 432.966 168.739 431.652C168.727 428.379 166.763 421.276 165.688 420.613C165.066 420.23 164.638 413.067 164.229 396.202C163.726 375.48 163.436 371.494 162.032 365.967C160.476 359.841 160.459 359.33 161.564 352.484C162.317 347.816 162.653 341.373 162.54 333.758C162.417 325.448 162.77 319.485 163.78 312.784C165.126 303.864 166.336 298.808 166.447 301.645C166.473 302.317 168.709 308.216 171.415 314.753C180.108 335.758 180.853 338.259 181.586 348.945C182.193 357.785 184.161 371.485 186.134 380.614C186.88 384.062 186.786 384.733 185.086 388.105C181.831 394.559 181.829 394.859 184.977 400.798L187.847 406.213L186.235 409.498C184.394 413.248 182.533 427.816 183.367 431.955C184.359 436.882 186.09 441.413 187.929 443.897C190.308 447.113 190.264 447.757 187.56 449.35C185.155 450.767 183.786 454.235 183.779 458.933C183.776 460.817 184.46 462.499 186.028 464.467C188.767 467.902 188.807 468.584 186.404 470.834C185.062 472.091 184.526 473.378 184.526 475.347C184.526 480.018 185.915 482.608 190.031 485.614C193.566 488.194 194.316 488.436 198.79 488.436H203.684L203.915 492.037C204.114 495.137 204.583 496.061 207.296 498.692C213.26 504.475 216.502 505.547 225.71 504.782C233.071 504.17 234.15 503.228 234.654 496.964C235.167 490.594 234.299 489.034 227.721 484.5C224.38 482.198 222.541 480.44 222.671 479.672C222.784 479.008 222.193 476.736 221.356 474.622C220.521 472.508 219.833 469.19 219.829 467.248C219.815 461.235 219.06 458.268 217.436 457.844C215.009 457.212 215.946 454.081 218.71 453.588L220.964 453.187L220.743 447.813C220.561 443.371 220.821 441.881 222.246 439.221L223.969 436.003V400.61V365.218H225.945H227.919L228.411 353.046C228.682 346.351 229.232 331.147 229.634 319.26C230.035 307.372 230.551 297.345 230.78 296.975C231.008 296.607 232.325 296.305 233.707 296.305C235.849 296.305 236.34 295.957 237.044 293.946C238.914 288.597 238.237 287.635 230.757 285.02C225.954 283.34 225.747 282.113 228.809 273.463C231.345 266.299 231.621 263.955 230.075 262.676C228.708 261.545 227.034 262.26 225.84 264.485C224.651 266.7 224.094 266.392 221.355 262.004C219.426 258.912 219.303 258.357 220.179 256.644C221.259 254.533 220.907 250.28 219.568 249.257C219.096 248.898 217.189 248.014 215.329 247.294C213.47 246.574 211.533 245.643 211.025 245.224C209.472 243.944 211.194 241.984 215.865 239.716C222.063 236.705 234.063 224.471 245.586 209.415C250.789 202.618 257.634 194.359 260.798 191.063C267.831 183.739 270.563 178.548 269.905 173.761C268.982 167.047 262.486 156.79 252.873 146.869C249.28 143.162 242.538 135.409 237.89 129.641C233.242 123.874 228.377 118.225 227.08 117.089C221.34 112.065 208.964 106.427 196.262 103.05C187.971 100.846 187.874 100.794 183.69 96.3213C181.371 93.8427 178.932 91.8142 178.27 91.8142C176.812 91.8142 175.51 89.582 175.51 87.084C175.51 85.2263 178.422 76.8909 180.406 73.0632C181.002 71.9142 181.61 68.6686 181.757 65.8514C181.998 61.2372 182.213 60.6357 183.93 59.7976C184.978 59.2852 186.172 58.4425 186.582 57.9249C187.56 56.6912 188.28 50.934 187.559 50.1236C187.249 49.7768 186.068 46.4592 184.935 42.7514C180.872 29.4693 178.213 25.882 169.399 21.7907C164.232 19.393 159.074 19.402 151.144 21.8244ZM111.417 164.659C111.751 165.175 112.194 172.198 112.4 180.267L112.776 194.939L116.674 199.19C120.651 203.529 121.352 205.479 120.782 210.629C120.537 212.841 120.317 212.989 116.65 213.408C114.519 213.653 111.524 214.075 109.993 214.348C107.55 214.783 106.955 214.57 105.11 212.602C101.059 208.278 84.5466 180.606 83.473 176.339C83.047 174.648 83.2934 174.289 85.3805 173.563C86.6983 173.106 89.092 171.241 90.699 169.421C92.5029 167.378 94.8417 165.691 96.8124 165.011C100.9 163.603 110.579 163.37 111.417 164.659ZM229.181 166.613C230.809 167.701 233.701 170.143 235.609 172.039C237.954 174.37 239.976 175.654 241.854 176.005C244.92 176.579 245.132 176.907 243.563 178.645C242.975 179.296 240.332 183.873 237.688 188.816C232.194 199.089 224.473 211.596 221.326 215.321C219.293 217.727 218.849 217.886 212.575 218.456C208.94 218.787 205.914 218.994 205.849 218.918C205.784 218.841 207.061 215.408 208.686 211.288C212.289 202.155 215.324 184.643 215.327 172.973L215.329 165.37L218.147 164.626C222.01 163.605 225.67 164.265 229.181 166.613Z" fill="#F6F6F6"/>
</g>
</svg>
