<svg width="334" height="326" viewBox="0 0 334 326" fill="none" xmlns="http://www.w3.org/2000/svg">
<path fill-rule="evenodd" clip-rule="evenodd" d="M0 2.13703C0 4.10432 0.145324 4.27406 1.83181 4.27406C3.5183 4.27406 3.66362 4.10432 3.66362 2.13703C3.66362 0.169741 3.5183 0 1.83181 0C0.145324 0 0 0.169741 0 2.13703ZM34.8044 36.9401C34.8044 38.9074 34.9497 39.0771 36.6362 39.0771C38.3227 39.0771 38.468 38.9074 38.468 36.9401C38.468 34.9728 38.3227 34.803 36.6362 34.803C34.9497 34.803 34.8044 34.9728 34.8044 36.9401ZM130.059 45.7935C130.059 47.4799 130.228 47.6252 132.196 47.6252C134.163 47.6252 134.333 47.4799 134.333 45.7935C134.333 44.1071 134.163 43.9617 132.196 43.9617C130.228 43.9617 130.059 44.1071 130.059 45.7935ZM147.766 63.195C147.766 65.1623 147.911 65.332 149.598 65.332C151.284 65.332 151.43 65.1623 151.43 63.195C151.43 61.2277 151.284 61.058 149.598 61.058C147.911 61.058 147.766 61.2277 147.766 63.195ZM69.2326 70.4865C68.5164 72.3531 69.2815 73.5718 71.2928 73.766C73.1906 73.9498 73.2724 73.8673 73.2724 71.7816C73.2724 69.7667 73.1362 69.6061 71.4217 69.6061C70.3726 69.6061 69.4238 69.9877 69.2326 70.4865ZM156.314 71.7431C156.314 73.8734 156.39 73.9504 158.299 73.766C160.054 73.5968 160.283 73.3636 160.283 71.7431C160.283 70.1226 160.054 69.8894 158.299 69.7203C156.39 69.5359 156.314 69.6128 156.314 71.7431ZM78.1572 80.3932C78.1572 82.3232 78.2708 82.4283 80.3597 82.4283C82.117 82.4283 82.487 82.2329 82.1915 81.4623C81.9875 80.9311 81.8208 80.0153 81.8208 79.4273C81.8208 78.6457 81.3269 78.3575 79.989 78.3575C78.3203 78.3575 78.1572 78.5389 78.1572 80.3932ZM166.542 78.6311C165.141 78.8106 164.863 79.1421 164.863 80.6368C164.863 82.2768 165.043 82.4283 167 82.4283C168.958 82.4283 169.137 82.2775 169.137 80.6326C169.137 78.5639 168.842 78.3362 166.542 78.6311ZM86.7057 89.0756C86.7057 90.5673 86.9872 90.8793 88.5411 91.107C90.7656 91.4337 90.9799 91.2517 90.9799 89.0427C90.9799 87.4729 90.7821 87.3129 88.8428 87.3129C86.8937 87.3129 86.7057 87.468 86.7057 89.0756ZM173.526 89.2704C173.694 90.9953 173.934 91.2273 175.548 91.2273C177.163 91.2273 177.403 90.9953 177.571 89.2704C177.755 87.3923 177.673 87.3129 175.548 87.3129C173.424 87.3129 173.342 87.3923 173.526 89.2704ZM182.072 88.992C182.233 90.3908 182.596 90.7028 184.25 90.8622C186.098 91.0405 186.234 90.9257 186.234 89.1831C186.234 87.446 186.079 87.3129 184.057 87.3129C182.041 87.3129 181.893 87.4381 182.072 88.992ZM95.2541 97.998C95.2541 100.033 95.3561 100.135 97.3912 100.135C99.4264 100.135 99.5283 100.033 99.5283 97.998C99.5283 95.963 99.4264 95.861 97.3912 95.861C95.3561 95.861 95.2541 95.963 95.2541 97.998ZM173.526 97.8454C173.693 99.5904 173.956 99.853 175.701 100.021C177.604 100.205 177.686 100.123 177.686 98.0365C177.686 95.9502 177.596 95.861 175.51 95.861C173.423 95.861 173.342 95.9422 173.526 97.8454ZM182.254 97.8454C182.388 99.5819 182.645 99.8536 184.32 100.021C186.142 100.203 186.234 100.108 186.234 98.0365C186.234 95.9715 186.129 95.861 184.168 95.861C182.213 95.861 182.11 95.9673 182.254 97.8454ZM112.863 104.711C112.697 104.877 112.683 105.839 112.831 106.848C113.059 108.402 113.371 108.683 114.862 108.683C116.47 108.683 116.625 108.495 116.625 106.546C116.625 104.607 116.465 104.409 114.895 104.409C113.943 104.409 113.029 104.545 112.863 104.711ZM121.51 106.546C121.51 108.676 121.585 108.753 123.495 108.569C125.25 108.4 125.479 108.167 125.479 106.546C125.479 104.926 125.25 104.692 123.495 104.523C121.585 104.339 121.51 104.416 121.51 106.546ZM130.059 106.546C130.059 108.581 130.16 108.683 132.196 108.683C134.231 108.683 134.333 108.581 134.333 106.546C134.333 104.511 134.231 104.409 132.196 104.409C130.16 104.409 130.059 104.511 130.059 106.546ZM104.21 113.365C103.986 113.588 103.803 114.55 103.803 115.502C103.803 117.071 104 117.231 105.94 117.231C107.975 117.231 108.077 117.129 108.077 115.094C108.077 113.155 107.917 112.957 106.347 112.957C105.395 112.957 104.433 113.14 104.21 113.365ZM112.962 115.094C112.962 117.062 113.107 117.231 114.793 117.231C116.48 117.231 116.625 117.062 116.625 115.094C116.625 113.127 116.48 112.957 114.793 112.957C113.107 112.957 112.962 113.127 112.962 115.094ZM121.51 115.056C121.51 117.124 121.613 117.231 123.594 117.231C125.558 117.231 125.673 117.118 125.578 115.247C125.49 113.479 125.262 113.242 123.495 113.071C121.591 112.888 121.51 112.969 121.51 115.056ZM130.059 115.056C130.059 117.142 130.148 117.231 132.234 117.231C134.321 117.231 134.402 117.15 134.219 115.247C134.051 113.502 133.788 113.239 132.043 113.071C130.14 112.888 130.059 112.969 130.059 115.056ZM138.882 113.496C138.731 113.648 138.607 114.55 138.607 115.502C138.607 117.071 138.805 117.231 140.744 117.231C142.781 117.231 142.881 117.131 142.881 115.085C142.881 113.068 142.769 112.946 141.019 113.08C139.995 113.158 139.033 113.346 138.882 113.496ZM103.803 123.948C103.803 125.634 103.972 125.779 105.94 125.779C107.907 125.779 108.077 125.634 108.077 123.948C108.077 122.261 107.907 122.116 105.94 122.116C103.972 122.116 103.803 122.261 103.803 123.948ZM112.962 123.948C112.962 125.576 113.165 125.779 114.793 125.779C116.422 125.779 116.625 125.576 116.625 123.948C116.625 122.319 116.422 122.116 114.793 122.116C113.165 122.116 112.962 122.319 112.962 123.948ZM130.059 123.948C130.059 125.634 130.228 125.779 132.196 125.779C134.163 125.779 134.333 125.634 134.333 123.948C134.333 122.261 134.163 122.116 132.196 122.116C130.228 122.116 130.059 122.261 130.059 123.948ZM138.607 123.948C138.607 125.634 138.777 125.779 140.744 125.779C142.711 125.779 142.881 125.634 142.881 123.948C142.881 122.261 142.711 122.116 140.744 122.116C138.777 122.116 138.607 122.261 138.607 123.948ZM103.917 132.648C104.085 134.393 104.347 134.656 106.092 134.824C107.996 135.008 108.077 134.927 108.077 132.84C108.077 130.753 107.988 130.664 105.901 130.664C103.814 130.664 103.733 130.745 103.917 132.648ZM112.962 132.801C112.962 134.768 113.107 134.938 114.793 134.938C116.48 134.938 116.625 134.768 116.625 132.801C116.625 130.834 116.48 130.664 114.793 130.664C113.107 130.664 112.962 130.834 112.962 132.801ZM121.51 132.84C121.51 134.927 121.591 135.008 123.495 134.824C125.24 134.656 125.502 134.393 125.67 132.648C125.854 130.745 125.773 130.664 123.686 130.664C121.599 130.664 121.51 130.753 121.51 132.84ZM130.173 132.648C130.342 134.402 130.576 134.632 132.196 134.632C133.816 134.633 134.049 134.404 134.219 132.648C134.403 130.739 134.326 130.664 132.196 130.664C130.065 130.664 129.988 130.739 130.173 132.648ZM138.721 132.648C138.89 134.404 139.124 134.633 140.744 134.633C142.365 134.633 142.598 134.404 142.767 132.648C142.951 130.739 142.874 130.664 140.744 130.664C138.614 130.664 138.537 130.739 138.721 132.648ZM112.962 141.349C112.962 143.316 113.107 143.486 114.793 143.486C116.48 143.486 116.625 143.316 116.625 141.349C116.625 139.382 116.48 139.212 114.793 139.212C113.107 139.212 112.962 139.382 112.962 141.349ZM121.51 141.388C121.51 143.475 121.591 143.556 123.495 143.372C125.24 143.204 125.502 142.942 125.67 141.197C125.854 139.293 125.773 139.212 123.686 139.212C121.599 139.212 121.51 139.301 121.51 141.388ZM130.059 141.349C130.059 143.384 130.16 143.486 132.196 143.486C134.231 143.486 134.333 143.384 134.333 141.349C134.333 139.314 134.231 139.212 132.196 139.212C130.16 139.212 130.059 139.314 130.059 141.349ZM243.02 143.481V147.76H238.754H234.487L234.327 169.543L234.166 191.326L230.072 191.178L225.978 191.029L225.798 195.497L225.618 199.965L221.219 200.144L216.818 200.323L216.639 195.87L216.459 191.417L208.063 191.247L199.667 191.077V195.368V199.66H203.941H208.216V208.513V217.366H203.941H199.667V221.64V225.915H195.42H191.173L190.993 230.341L190.814 234.768L182.139 234.937L173.466 235.106L173.286 230.663L173.106 226.22L168.984 226.039L164.863 225.859V221.612V217.366H160.283H155.704V208.818V200.27H151.582H147.461L147.604 221.72L147.747 243.169L151.878 243.243L156.009 243.316L156.189 247.743L156.368 252.169H160.616H164.863V256.443V260.718H169.137H173.411V264.965V269.212L177.838 269.391L182.265 269.571L182.058 273.664L181.852 277.758L186.332 277.938L190.814 278.119L190.976 295.368L191.138 312.617H199.705H208.271L208.091 308.495L207.91 304.374H203.789H199.667V299.947V295.521H203.941H208.216V291.247V286.972H212.49H216.764V282.377V277.78L225.465 277.95L234.166 278.119L234.346 282.546L234.525 286.972H243.047H251.569V282.698V278.424H247.294H243.02V273.845V269.266H247.294H251.569V264.992V260.718H255.843H260.117V256.443V252.169H264.375H268.632L268.802 243.469L268.971 234.768L273.398 234.588L277.824 234.409V238.654V242.898L281.104 243.107C286.763 243.467 286.429 244.022 286.237 234.567L286.068 226.22L277.367 226.051L268.665 225.881V217.35C268.665 209.637 268.768 208.817 269.734 208.804C270.321 208.796 278.084 208.727 286.984 208.652L303.165 208.513L303.345 204.392L303.525 200.27H290.675H277.824V191.417V182.563H299.511H321.196L321.034 165.314L320.872 148.066L316.598 147.76L312.324 147.455V143.486V139.517L277.672 139.36L243.02 139.202V143.481ZM260.422 152.34V156.614L255.995 156.793L251.569 156.973V152.34V147.707L255.995 147.886L260.422 148.066V152.34ZM121.51 280.19C121.51 281.573 121.847 282.04 123.065 282.345C125.144 282.868 125.784 282.367 125.784 280.22C125.784 278.575 125.605 278.424 123.647 278.424C121.698 278.424 121.51 278.579 121.51 280.19ZM130.059 280.187C130.059 281.679 130.34 281.991 131.894 282.219C134.118 282.545 134.333 282.363 134.333 280.154C134.333 278.584 134.135 278.424 132.196 278.424C130.247 278.424 130.059 278.579 130.059 280.187ZM138.721 280.409C138.86 281.856 139.202 282.372 139.981 282.317C140.568 282.275 141.462 282.206 141.965 282.164C142.559 282.115 142.881 281.443 142.881 280.256C142.881 278.564 142.716 278.424 140.706 278.424C138.619 278.424 138.537 278.506 138.721 280.409ZM147.705 278.73C147.671 278.898 147.616 279.78 147.583 280.691C147.529 282.152 147.753 282.354 149.476 282.395C151.287 282.438 151.43 282.296 151.43 280.433C151.43 278.608 151.262 278.424 149.598 278.424C148.59 278.424 147.739 278.562 147.705 278.73ZM156.314 280.514C156.314 282.495 156.417 282.595 158.299 282.453C160.065 282.319 160.294 282.089 160.383 280.364C160.476 278.545 160.354 278.424 158.398 278.424C156.433 278.424 156.314 278.543 156.314 280.514ZM164.977 280.409C165.146 282.164 165.379 282.393 167 282.393C168.621 282.393 168.854 282.164 169.023 280.409C169.207 278.499 169.13 278.424 167 278.424C164.87 278.424 164.793 278.499 164.977 280.409ZM173.411 280.22C173.411 282.372 173.81 282.686 176.01 282.266C177.375 282.005 177.686 281.62 177.686 280.185C177.686 278.58 177.497 278.424 175.548 278.424C173.59 278.424 173.411 278.575 173.411 280.22ZM260.681 279.188C260.655 279.608 260.542 280.431 260.43 281.017C260.163 282.41 260.919 282.827 262.837 282.345C264.054 282.04 264.391 281.573 264.391 280.19C264.391 278.635 264.173 278.424 262.559 278.424C261.526 278.424 260.707 278.757 260.681 279.188ZM269.276 280.49C269.276 282.43 269.396 282.549 271.243 282.457C273.008 282.368 273.22 282.156 273.308 280.391C273.401 278.544 273.282 278.424 271.342 278.424C269.402 278.424 269.276 278.55 269.276 280.49ZM277.824 280.256C277.824 281.443 278.147 282.115 278.74 282.164C279.244 282.206 280.137 282.275 280.725 282.317C281.504 282.372 281.845 281.856 281.985 280.409C282.168 278.506 282.087 278.424 280 278.424C277.99 278.424 277.824 278.564 277.824 280.256ZM286.373 280.187C286.373 281.679 286.654 281.991 288.208 282.219C290.433 282.545 290.647 282.363 290.647 280.154C290.647 278.584 290.449 278.424 288.51 278.424C286.561 278.424 286.373 278.579 286.373 280.187ZM295.036 280.389C295.207 282.148 295.434 282.358 297.211 282.397C299.057 282.439 299.196 282.302 299.196 280.433C299.196 278.538 299.073 278.424 297.02 278.424C294.937 278.424 294.852 278.509 295.036 280.389ZM304.08 280.45C304.08 282.294 304.245 282.476 305.912 282.476C307.58 282.476 307.744 282.294 307.744 280.45C307.744 278.606 307.58 278.424 305.912 278.424C304.245 278.424 304.08 278.606 304.08 280.45ZM312.629 280.43C312.629 282.289 312.773 282.433 314.613 282.414C316.401 282.395 316.617 282.196 316.789 280.409C316.973 278.506 316.891 278.424 314.804 278.424C312.752 278.424 312.629 278.538 312.629 280.43ZM321.292 280.408C321.461 282.162 321.694 282.392 323.314 282.393C324.935 282.393 325.168 282.164 325.337 280.409C325.522 278.499 325.445 278.424 323.314 278.424C321.184 278.424 321.107 278.499 321.292 280.408ZM329.726 280.256C329.726 281.943 329.896 282.088 331.863 282.088C333.83 282.088 334 281.943 334 280.256C334 278.57 333.83 278.424 331.863 278.424C329.896 278.424 329.726 278.57 329.726 280.256ZM121.51 297.619C121.51 299.688 121.613 299.795 123.594 299.795C125.558 299.795 125.673 299.681 125.578 297.81C125.49 296.043 125.262 295.805 123.495 295.635C121.591 295.451 121.51 295.532 121.51 297.619ZM130.059 297.658C130.059 299.693 130.16 299.795 132.196 299.795C134.231 299.795 134.333 299.693 134.333 297.658C134.333 295.623 134.231 295.521 132.196 295.521C130.16 295.521 130.059 295.623 130.059 297.658ZM138.607 297.658C138.607 299.693 138.709 299.795 140.744 299.795C142.779 299.795 142.881 299.693 142.881 297.658C142.881 295.623 142.779 295.521 140.744 295.521C138.709 295.521 138.607 295.623 138.607 297.658ZM312.629 315.059C312.629 316.746 312.799 316.891 314.766 316.891C316.733 316.891 316.903 316.746 316.903 315.059C316.903 313.373 316.733 313.227 314.766 313.227C312.799 313.227 312.629 313.373 312.629 315.059ZM321.177 315.059C321.177 316.746 321.347 316.891 323.314 316.891C325.282 316.891 325.452 316.746 325.452 315.059C325.452 313.373 325.282 313.227 323.314 313.227C321.347 313.227 321.177 313.373 321.177 315.059ZM173.526 323.76C173.693 325.505 173.956 325.767 175.701 325.935C177.604 326.119 177.686 326.038 177.686 323.951C177.686 321.865 177.596 321.776 175.51 321.776C173.423 321.776 173.342 321.857 173.526 323.76ZM182.194 322.656C181.478 324.523 182.243 325.741 184.254 325.935C186.152 326.119 186.234 326.037 186.234 323.951C186.234 321.936 186.098 321.776 184.383 321.776C183.334 321.776 182.385 322.157 182.194 322.656Z" fill="black"/>
</svg>
