<svg width="213" height="485" viewBox="0 0 213 485" fill="none" xmlns="http://www.w3.org/2000/svg">
<path fill-rule="evenodd" clip-rule="evenodd" d="M94.1438 1.82444C90.8666 2.82592 87.4354 4.34724 86.5188 5.20565C83.4325 8.09624 79.3889 19.3942 75.8954 34.8913C75.6797 35.8501 76.2132 37.6575 77.1673 39.1961C78.2943 41.0148 78.6714 42.4964 78.3664 43.9098C78.0584 45.336 78.5926 47.3802 80.0967 50.5367C81.2935 53.0468 82.8517 57.0916 83.5602 59.5253C84.2679 61.9582 85.6315 65.8758 86.5895 68.2308L88.3317 72.5123L84.4505 74.8838C82.316 76.1879 79.4543 78.2261 78.0914 79.4126C74.7451 82.3249 66.4094 86.4282 59.2712 88.6768C48.5599 92.0506 45.0753 95.0408 19.3356 122.948C8.21999 135 1.06304 145.131 0.118651 150.15C-0.243479 152.075 0.185507 153.827 1.93079 157.546C5.63473 165.437 9.63167 170.75 31.9695 197.485C45.5216 213.706 46.0407 214.209 50.9685 215.903C57.87 218.276 58.6123 219.675 53.6334 220.925C51.8356 221.377 48.4735 223.226 46.1624 225.034C41.0085 229.067 29.1243 242.485 29.113 244.283C29.1063 245.374 29.799 245.594 33.237 245.594C35.5097 245.594 37.3691 245.86 37.3691 246.185C37.3691 246.509 36.693 248.097 35.8665 249.714C34.0243 253.317 33.8072 255.574 35.5112 253.415C36.5705 252.072 36.6216 252.234 36.1761 255.526C35.442 260.952 37.7628 262.704 42.478 260.282C44.4915 259.247 44.5073 259.259 44.6515 261.934C44.9491 267.456 45.363 268.065 48.8145 268.065C50.964 268.065 52.4531 268.544 53.4959 269.571C54.3366 270.4 55.7852 271.664 56.7145 272.38C58.3201 273.619 58.4245 274.334 58.8227 286.792C59.3847 304.382 61.0616 316.76 67.3432 349.712C67.7272 351.725 67.4687 352.889 66.2328 354.721C64.06 357.943 63.3613 363.648 64.6836 367.381C65.2539 368.992 67.6753 373.513 70.0637 377.427C74.9292 385.4 77.1809 391.002 77.2049 395.198C77.2139 396.753 77.8901 401.042 78.7075 404.729C80.6 413.266 80.579 414.356 78.5032 415.264C76.3371 416.211 75.9675 419.804 77.1808 428.103C77.9953 433.672 77.9457 434.501 76.6181 437.491C74.9795 441.185 71.0825 444.841 68.7835 444.841C66.5777 444.841 58.5627 449.274 56.855 451.439C53.5883 455.58 56.124 459.993 62.5334 461.32C68.8767 462.633 78.6496 462.538 81.3423 461.138C82.5933 460.488 85.7675 457.759 88.3963 455.075C93.666 449.693 95.5976 448.833 99.3639 450.191C101.707 451.036 102.327 450.885 107.76 448.16L113.627 445.216L113.858 440.722C113.985 438.25 113.519 433.813 112.822 430.863C111.816 426.603 111.73 424.998 112.403 423.073C113.453 420.07 113.509 415.127 112.5 414.505C112.087 414.25 111.745 412.966 111.739 411.652C111.727 408.379 109.763 401.276 108.688 400.613C108.066 400.23 107.638 393.067 107.229 376.202C106.726 355.48 106.436 351.494 105.032 345.967C103.476 339.841 103.459 339.33 104.564 332.484C105.317 327.816 105.653 321.373 105.54 313.758C105.417 305.448 105.77 299.485 106.78 292.784C108.126 283.864 109.336 278.808 109.447 281.645C109.473 282.317 111.709 288.216 114.415 294.753C123.108 315.758 123.853 318.259 124.586 328.945C125.193 337.785 127.161 351.485 129.134 360.614C129.88 364.062 129.786 364.733 128.086 368.105C124.831 374.559 124.829 374.859 127.977 380.798L130.847 386.213L129.235 389.498C127.394 393.248 125.533 407.816 126.367 411.955C127.359 416.882 129.09 421.413 130.929 423.897C133.308 427.113 133.264 427.757 130.56 429.35C128.155 430.767 126.786 434.235 126.779 438.933C126.776 440.817 127.46 442.499 129.028 444.467C131.767 447.902 131.807 448.584 129.404 450.834C128.062 452.091 127.526 453.378 127.526 455.347C127.526 460.018 128.915 462.608 133.031 465.614C136.566 468.194 137.316 468.436 141.79 468.436H146.684L146.915 472.037C147.114 475.137 147.583 476.061 150.296 478.692C156.26 484.475 159.502 485.547 168.71 484.782C176.071 484.17 177.15 483.228 177.654 476.964C178.167 470.594 177.299 469.034 170.721 464.5C167.38 462.198 165.541 460.44 165.671 459.672C165.784 459.008 165.193 456.736 164.356 454.622C163.521 452.508 162.833 449.19 162.829 447.248C162.815 441.235 162.06 438.268 160.436 437.844C158.009 437.212 158.946 434.081 161.71 433.588L163.964 433.187L163.743 427.813C163.561 423.371 163.821 421.881 165.246 419.221L166.969 416.003V380.61V345.218H168.945H170.919L171.411 333.046C171.682 326.351 172.232 311.147 172.634 299.26C173.035 287.372 173.551 277.345 173.78 276.975C174.008 276.607 175.325 276.305 176.707 276.305C178.849 276.305 179.34 275.957 180.044 273.946C181.914 268.597 181.237 267.635 173.757 265.02C168.954 263.34 168.747 262.113 171.809 253.463C174.345 246.299 174.621 243.955 173.075 242.676C171.708 241.545 170.034 242.26 168.84 244.485C167.651 246.7 167.094 246.392 164.355 242.004C162.426 238.912 162.303 238.357 163.179 236.644C164.259 234.533 163.907 230.28 162.568 229.257C162.096 228.898 160.189 228.014 158.329 227.294C156.47 226.574 154.533 225.643 154.025 225.224C152.472 223.944 154.194 221.984 158.865 219.716C165.063 216.705 177.063 204.471 188.586 189.415C193.789 182.618 200.634 174.359 203.798 171.063C210.831 163.739 213.563 158.548 212.905 153.761C211.982 147.047 205.486 136.79 195.873 126.869C192.28 123.162 185.538 115.409 180.89 109.641C176.242 103.874 171.377 98.225 170.08 97.0894C164.34 92.0648 151.964 86.4267 139.262 83.05C130.971 80.8455 130.874 80.7938 126.69 76.3213C124.371 73.8427 121.932 71.8142 121.27 71.8142C119.812 71.8142 118.51 69.582 118.51 67.084C118.51 65.2263 121.422 56.8909 123.406 53.0632C124.002 51.9142 124.61 48.6686 124.757 45.8514C124.998 41.2372 125.213 40.6357 126.93 39.7976C127.978 39.2852 129.172 38.4425 129.582 37.9249C130.56 36.6912 131.28 30.934 130.559 30.1236C130.249 29.7768 129.068 26.4592 127.935 22.7514C123.872 9.46925 121.213 5.88205 112.399 1.79073C107.232 -0.606976 102.074 -0.597988 94.1438 1.82444ZM54.417 144.659C54.7514 145.175 55.1939 152.198 55.4005 160.267L55.7761 174.939L59.6739 179.19C63.6513 183.529 64.3516 185.479 63.7821 190.629C63.5371 192.841 63.317 192.989 59.6499 193.408C57.5192 193.653 54.5237 194.075 52.9933 194.348C50.5501 194.783 49.955 194.57 48.1098 192.602C44.0588 188.278 27.5466 160.606 26.473 156.339C26.047 154.648 26.2934 154.289 28.3805 153.563C29.6983 153.106 32.092 151.241 33.699 149.421C35.5029 147.378 37.8417 145.691 39.8124 145.011C43.9003 143.603 53.5793 143.37 54.417 144.659ZM172.181 146.613C173.809 147.701 176.701 150.143 178.609 152.039C180.954 154.37 182.976 155.654 184.854 156.005C187.92 156.579 188.132 156.907 186.563 158.645C185.975 159.296 183.332 163.873 180.688 168.816C175.194 179.089 167.473 191.596 164.326 195.321C162.293 197.727 161.849 197.886 155.575 198.456C151.94 198.787 148.914 198.994 148.849 198.918C148.784 198.841 150.061 195.408 151.686 191.288C155.289 182.155 158.324 164.643 158.327 152.973L158.329 145.37L161.147 144.626C165.01 143.605 168.67 144.265 172.181 146.613Z" fill="#F6F6F6"/>
</svg>
