<svg width="32" height="32" viewBox="0 0 32 32" fill="none" xmlns="http://www.w3.org/2000/svg">
<path fill-rule="evenodd" clip-rule="evenodd" d="M2.24942 2.24942C0 4.49884 0 8.1192 0 15.36V16.64C0 23.8808 0 27.5011 2.24942 29.7506C4.49884 32 8.1192 32 15.36 32H16.64C23.8808 32 27.5011 32 29.7506 29.7506C32 27.5011 32 23.8808 32 16.64V15.36C32 8.1192 32 4.49884 29.7506 2.24942C27.5011 0 23.8808 0 16.64 0H15.36C8.1192 0 4.49884 0 2.24942 2.24942ZM5.40104 9.7334C5.57437 18.0534 9.73431 23.0534 17.0276 23.0534H17.4411V18.2934C20.1211 18.5601 22.1476 20.5201 22.9609 23.0534H26.7477C25.7077 19.2667 22.9742 17.1734 21.2676 16.3734C22.9742 15.3867 25.3742 12.9867 25.9476 9.7334H22.5075C21.7608 12.3734 19.5478 14.7734 17.4411 15.0001V9.7334H14.001V18.9601C11.8676 18.4267 9.17438 15.8401 9.05438 9.7334H5.40104Z" fill="black"/>
</svg>
