<svg width="299" height="40" viewBox="0 0 299 40" fill="none" xmlns="http://www.w3.org/2000/svg">
<path d="M71.6257 25.5006H61.8616L59.9989 30.0006H55.0117L64.3852 9.00062H69.1922L78.5957 30.0006H73.4884L71.6257 25.5006ZM70.0935 21.8106L66.7587 13.7706L63.4238 21.8106H70.0935Z" fill="black"/>
<path d="M94.1769 30.0006L90.1211 24.1506H89.8807H85.6446V30.0006H80.7776V9.00062H89.8807C91.7434 9.00062 93.3558 9.31062 94.7177 9.93062C96.0997 10.5506 97.1612 11.4306 97.9023 12.5706C98.6434 13.7106 99.0139 15.0606 99.0139 16.6206C99.0139 18.1806 98.6334 19.5306 97.8723 20.6706C97.1312 21.7906 96.0697 22.6506 94.6877 23.2506L99.4045 30.0006H94.1769ZM94.0868 16.6206C94.0868 15.4406 93.7063 14.5406 92.9452 13.9206C92.1841 13.2806 91.0725 12.9606 89.6104 12.9606H85.6446V20.2806H89.6104C91.0725 20.2806 92.1841 19.9606 92.9452 19.3206C93.7063 18.6806 94.0868 17.7806 94.0868 16.6206Z" fill="black"/>
<path d="M106.933 12.9606H100.203V9.00062H118.53V12.9606H111.8V30.0006H106.933V12.9606Z" fill="black"/>
<path d="M137.432 26.1006V30.0006H121.148V9.00062H137.041V12.9006H125.985V17.4606H135.749V21.2406H125.985V26.1006H137.432Z" fill="black"/>
<path d="M160.442 30.0006L160.412 17.4006L154.223 27.7806H152.03L145.871 17.6706V30.0006H141.304V9.00062H145.33L153.201 22.0506L160.953 9.00062H164.948L165.009 30.0006H160.442Z" fill="black"/>
<path d="M188.691 30.3606C186.508 30.3606 184.535 29.8906 182.773 28.9506C181.03 28.0106 179.658 26.7206 178.657 25.0806C177.675 23.4206 177.185 21.5606 177.185 19.5006C177.185 17.4406 177.675 15.5906 178.657 13.9506C179.658 12.2906 181.03 10.9906 182.773 10.0506C184.535 9.11062 186.508 8.64062 188.691 8.64062C190.874 8.64062 192.837 9.11062 194.58 10.0506C196.322 10.9906 197.694 12.2906 198.696 13.9506C199.697 15.5906 200.198 17.4406 200.198 19.5006C200.198 21.5606 199.697 23.4206 198.696 25.0806C197.694 26.7206 196.322 28.0106 194.58 28.9506C192.837 29.8906 190.874 30.3606 188.691 30.3606ZM188.691 26.2206C189.933 26.2206 191.055 25.9406 192.056 25.3806C193.057 24.8006 193.839 24.0006 194.399 22.9806C194.98 21.9606 195.271 20.8006 195.271 19.5006C195.271 18.2006 194.98 17.0406 194.399 16.0206C193.839 15.0006 193.057 14.2106 192.056 13.6506C191.055 13.0706 189.933 12.7806 188.691 12.7806C187.449 12.7806 186.328 13.0706 185.326 13.6506C184.325 14.2106 183.534 15.0006 182.953 16.0206C182.392 17.0406 182.112 18.2006 182.112 19.5006C182.112 20.8006 182.392 21.9606 182.953 22.9806C183.534 24.0006 184.325 24.8006 185.326 25.3806C186.328 25.9406 187.449 26.2206 188.691 26.2206Z" fill="black"/>
<path d="M212.959 9.00062C214.821 9.00062 216.434 9.31062 217.796 9.93062C219.178 10.5506 220.239 11.4306 220.98 12.5706C221.721 13.7106 222.092 15.0606 222.092 16.6206C222.092 18.1606 221.721 19.5106 220.98 20.6706C220.239 21.8106 219.178 22.6906 217.796 23.3106C216.434 23.9106 214.821 24.2106 212.959 24.2106H208.722V30.0006H203.855V9.00062H212.959ZM212.688 20.2506C214.15 20.2506 215.262 19.9406 216.023 19.3206C216.784 18.6806 217.165 17.7806 217.165 16.6206C217.165 15.4406 216.784 14.5406 216.023 13.9206C215.262 13.2806 214.15 12.9606 212.688 12.9606H208.722V20.2506H212.688Z" fill="black"/>
<path d="M238.36 25.5006H228.596L226.733 30.0006H221.746L231.12 9.00062H235.927L245.33 30.0006H240.223L238.36 25.5006ZM236.828 21.8106L233.493 13.7706L230.158 21.8106H236.828Z" fill="black"/>
<path d="M260.911 30.0006L256.856 24.1506H256.615H252.379V30.0006H247.512V9.00062H256.615C258.478 9.00062 260.09 9.31062 261.452 9.93062C262.834 10.5506 263.896 11.4306 264.637 12.5706C265.378 13.7106 265.748 15.0606 265.748 16.6206C265.748 18.1806 265.368 19.5306 264.607 20.6706C263.866 21.7906 262.804 22.6506 261.422 23.2506L266.139 30.0006H260.911ZM260.821 16.6206C260.821 15.4406 260.441 14.5406 259.68 13.9206C258.919 13.2806 257.807 12.9606 256.345 12.9606H252.379V20.2806H256.345C257.807 20.2806 258.919 19.9606 259.68 19.3206C260.441 18.6806 260.821 17.7806 260.821 16.6206Z" fill="black"/>
<path d="M269.605 9.00062H274.472V30.0006H269.605V9.00062Z" fill="black"/>
<path d="M298.75 9.00062V30.0006H294.755L284.269 17.2506V30.0006H279.463V9.00062H283.488L293.943 21.7506V9.00062H298.75Z" fill="black"/>
<path fill-rule="evenodd" clip-rule="evenodd" d="M20.0289 36.5517C29.1833 36.5517 36.6045 29.1413 36.6045 20C36.6045 10.8587 29.1833 3.44828 20.0289 3.44828C10.8744 3.44828 3.45325 10.8587 3.45325 20C3.45325 29.1413 10.8744 36.5517 20.0289 36.5517ZM20.0289 40C31.0905 40 40.0578 31.0457 40.0578 20C40.0578 8.9543 31.0905 0 20.0289 0C8.96723 0 0 8.9543 0 20C0 31.0457 8.96723 40 20.0289 40Z" fill="black"/>
<path fill-rule="evenodd" clip-rule="evenodd" d="M20.0287 2.07031L10.4587 21.207H29.5986L20.0287 2.07031ZM20.0287 9.78868L16.0429 17.759H24.0145L20.0287 9.78868Z" fill="black"/>
<path fill-rule="evenodd" clip-rule="evenodd" d="M8.60167 26.5508H31.4554L34.0046 31.6418L30.9159 33.1839L29.3212 29.9991H10.7359L9.14117 33.1839L6.05249 31.6418L8.60167 26.5508Z" fill="black"/>
</svg>
