<svg width="20" height="20" viewBox="0 0 20 20" fill="none" xmlns="http://www.w3.org/2000/svg">
<path fill-rule="evenodd" clip-rule="evenodd" d="M1.34983 0.0563226C1.02111 0.138596 0.775047 0.279089 0.527186 0.526065C0.271907 0.780461 0.117584 1.06059 0.0464927 1.3987C-0.0159705 1.69574 -0.0152677 18.3033 0.0472344 18.5953C0.190783 19.2662 0.72984 19.8054 1.40054 19.9489C1.69275 20.0115 18.2967 20.0122 18.5936 19.9496C19.2561 19.8101 19.8094 19.2568 19.9478 18.5953C20.0101 18.2978 20.0092 1.68996 19.9469 1.3987C19.803 0.726145 19.2623 0.185024 18.5936 0.044374C18.278 -0.022046 1.61678 -0.0104879 1.34983 0.0563226ZM9.41148 5.29179V9.41131H5.29281H1.17415L1.17579 5.51631C1.17762 1.13845 1.15564 1.45571 1.47057 1.265L1.6231 1.17265L5.51729 1.17246L9.41148 1.17226V5.29179ZM18.5087 1.25087C18.6079 1.30147 18.6908 1.38441 18.7414 1.48363C18.8186 1.63502 18.82 1.70612 18.82 5.52451V9.41131H14.7013H10.5827V5.29179V1.17226H14.4686C18.2862 1.17226 18.3573 1.17363 18.5087 1.25087ZM5.02972 3.04897C4.76964 3.18634 4.72674 3.3323 4.72674 4.07975V4.7256H4.08103C3.32604 4.7256 3.18581 4.76789 3.04855 5.03696C2.949 5.23212 2.949 5.3905 3.04855 5.58566C3.18581 5.85474 3.32604 5.89703 4.08103 5.89703H4.72674V6.54287C4.72674 7.11309 4.73595 7.20676 4.80533 7.3428C4.89371 7.51606 5.11862 7.65417 5.31233 7.65417C5.50604 7.65417 5.73095 7.51606 5.81934 7.3428C5.88871 7.20676 5.89792 7.11309 5.89792 6.54287V5.89703H6.54364C7.11373 5.89703 7.20739 5.88781 7.3434 5.81842C7.51662 5.73002 7.6547 5.50507 7.6547 5.31131C7.6547 5.11756 7.51662 4.8926 7.3434 4.8042C7.20739 4.73481 7.11373 4.7256 6.54364 4.7256H5.89792V4.07975C5.89792 3.50954 5.88871 3.41586 5.81934 3.27982C5.67528 2.99739 5.32264 2.8943 5.02972 3.04897ZM12.6424 4.80611C12.4776 4.89315 12.3394 5.12353 12.3394 5.31131C12.3394 5.50507 12.4775 5.73002 12.6507 5.81842C12.7988 5.89398 12.8777 5.89703 14.6818 5.89703C16.4859 5.89703 16.5648 5.89398 16.7129 5.81842C16.8861 5.73002 17.0242 5.50507 17.0242 5.31131C17.0242 5.11756 16.8861 4.8926 16.7129 4.8042C16.5646 4.72856 16.4878 4.72568 14.6736 4.72732C12.8738 4.72896 12.7818 4.73255 12.6424 4.80611ZM9.41148 14.7023V18.8218H5.5226H1.63372L1.47799 18.7342C1.3866 18.6829 1.29166 18.5867 1.24821 18.5015C1.17696 18.3618 1.17415 18.2088 1.17415 14.4695V10.5827H5.29281H9.41148V14.7023ZM18.82 14.4695C18.82 18.2879 18.8186 18.359 18.7414 18.5104C18.6908 18.6096 18.6079 18.6926 18.5087 18.7432C18.3573 18.8204 18.2862 18.8218 14.4686 18.8218H10.5827V14.7023V10.5827H14.7013H18.82V14.4695ZM3.8464 12.9024C3.68735 12.9717 3.52538 13.1706 3.49469 13.3342C3.44792 13.5834 3.53771 13.7363 4.01747 14.2239L4.46884 14.6827L4.01634 15.1415C3.50558 15.6595 3.42719 15.8057 3.51082 16.0848C3.56649 16.2707 3.77859 16.466 3.96207 16.5004C4.21349 16.5476 4.36492 16.4588 4.85362 15.9779L5.31233 15.5264L5.77104 15.979C6.28886 16.4899 6.43507 16.5683 6.71412 16.4846C6.89991 16.4289 7.09519 16.2168 7.12962 16.0333C7.17678 15.7818 7.08804 15.6303 6.60719 15.1415L6.15582 14.6827L6.60719 14.2239C7.08804 13.7351 7.17678 13.5837 7.12962 13.3322C7.09519 13.1487 6.89991 12.9365 6.71412 12.8808C6.43499 12.7972 6.2889 12.8756 5.7703 13.3872L5.31089 13.8405L4.8724 13.4041C4.33037 12.8646 4.14322 12.7731 3.8464 12.9024ZM12.6424 13.0061C12.4776 13.0932 12.3394 13.3235 12.3394 13.5113C12.3394 13.7051 12.4775 13.93 12.6507 14.0184C12.7988 14.094 12.8777 14.097 14.6818 14.097C16.4859 14.097 16.5648 14.094 16.7129 14.0184C16.8861 13.93 17.0242 13.7051 17.0242 13.5113C17.0242 13.3176 16.8861 13.0926 16.7129 13.0042C16.5646 12.9286 16.4878 12.9257 14.6736 12.9273C12.8738 12.929 12.7818 12.9325 12.6424 13.0061ZM12.6424 15.349C12.4776 15.436 12.3394 15.6664 12.3394 15.8542C12.3394 16.0479 12.4775 16.2729 12.6507 16.3613C12.7988 16.4368 12.8777 16.4399 14.6818 16.4399C16.4859 16.4399 16.5648 16.4368 16.7129 16.3613C16.8861 16.2729 17.0242 16.0479 17.0242 15.8542C17.0242 15.6604 16.8861 15.4355 16.7129 15.3471C16.5646 15.2714 16.4878 15.2685 14.6736 15.2702C12.8738 15.2718 12.7818 15.2754 12.6424 15.349Z" fill="white"/>
</svg>
