<svg width="143" height="62" viewBox="0 0 143 62" fill="none" xmlns="http://www.w3.org/2000/svg">
<path d="M42.0098 15.6809V23.9962H43.5266V17.0492H48.6029V23.9962H50.1198V15.6809H42.0098Z" fill="black"/>
<path d="M51.7337 15.6809V23.9962H59.3932V22.5978H53.2656V20.4325H58.5822V19.0642H53.2656V17.0643H59.1679V15.6809H51.7337Z" fill="black"/>
<path d="M60.871 15.6809V23.9962H62.4029V22.0715H65.752C67.6594 22.0715 69.1312 20.8385 69.1312 18.8988C69.1312 16.959 67.6594 15.6809 65.752 15.6809H60.871ZM62.4029 17.0793H65.6919C66.8334 17.0793 67.6143 17.771 67.6143 18.8988C67.6143 20.0115 66.8334 20.6731 65.6919 20.6731H62.4029V17.0793Z" fill="black"/>
<path d="M70.4043 15.6809V23.9962H76.0813C77.7183 23.9962 78.8297 22.8384 78.8297 21.44C78.8297 20.4475 78.3491 19.7107 77.5381 19.3499C78.0187 19.0191 78.244 18.5078 78.244 17.8312C78.244 16.523 77.2077 15.6809 75.7058 15.6809H70.4043ZM71.9362 17.0643H75.6157C76.4868 17.0643 76.7571 17.5304 76.7571 18.0417C76.7571 18.5228 76.4267 18.989 75.841 18.989H71.9362V17.0643ZM71.9362 20.3273H76.1714C76.8622 20.3273 77.3428 20.7483 77.3428 21.455C77.3428 22.1016 76.8923 22.6128 76.0212 22.6128H71.9362V20.3273Z" fill="black"/>
<path d="M83.9535 17.0492H84.8996L86.6418 21.3347H82.1663L83.9535 17.0492ZM83.0223 15.6809L79.3878 23.9962H81.0249L81.5956 22.688H87.2576L87.8283 23.9962H89.4353L85.9059 15.6809H83.0223Z" fill="black"/>
<path d="M98.707 15.6809H93.8109C91.8886 15.6809 90.4468 16.9741 90.4468 18.8988C90.4468 20.1769 91.0475 21.1392 92.1138 21.6806L90.8072 23.9962H92.4893L93.5556 22.0414H97.1751V23.9962H98.707V15.6809ZM97.1751 17.0793V20.643H93.886C92.7446 20.643 91.9787 20.0265 91.9787 18.8988C91.9787 17.786 92.7446 17.0793 93.886 17.0793H97.1751Z" fill="black"/>
<path d="M42.0098 30.7176V39.0329H43.5417L49.0685 32.7776V39.0329H50.5854V30.7176H49.0685L43.5266 37.003V30.7176H42.0098Z" fill="black"/>
<path d="M52.1737 30.7176V39.0329H53.7056V35.4091H59.0372V39.0329H60.5541V30.7176H59.0372V34.0407H53.7056V30.7176H52.1737Z" fill="black"/>
<path d="M61.9964 30.7176L64.3393 34.582L61.7111 39.0329H63.4833L65.6009 35.3489H67.6284V39.0329H69.1453V35.3489H71.1728L73.2904 39.0329H75.0476L72.4343 34.582L74.7772 30.7176H73.0501L71.1127 33.9956H69.1453V30.7176H67.6284V33.9956H65.661L63.7236 30.7176H61.9964Z" fill="black"/>
<path d="M76.1976 30.7176V39.0329H83.857V37.6345H77.7295V35.4692H83.046V34.1009H77.7295V32.101H83.6318V30.7176H76.1976Z" fill="black"/>
<path d="M85.3348 30.7176V39.0329H86.8667V35.4091H92.1983V39.0329H93.7152V30.7176H92.1983V34.0407H86.8667V30.7176H85.3348Z" fill="black"/>
<path d="M95.3228 30.7176V39.0329H102.982V37.6345H96.8547V35.4692H102.171V34.1009H96.8547V32.101H102.757V30.7176H95.3228Z" fill="black"/>
<path d="M104.46 30.7176V39.0329H105.992V37.1082H109.341C111.248 37.1082 112.72 35.8752 112.72 33.9355C112.72 31.9957 111.248 30.7176 109.341 30.7176H104.46ZM105.992 32.116H109.281C110.422 32.116 111.203 32.8077 111.203 33.9355C111.203 35.0482 110.422 35.7098 109.281 35.7098H105.992V32.116Z" fill="black"/>
<path d="M113.993 30.7176V39.0329H115.525V35.4091H120.857V39.0329H122.374V30.7176H120.857V34.0407H115.525V30.7176H113.993Z" fill="black"/>
<path d="M128.247 32.086H129.193L130.935 36.3714H126.459L128.247 32.086ZM127.315 30.7176L123.681 39.0329H125.318L125.889 37.7247H131.551L132.121 39.0329H133.728L130.199 30.7176H127.315Z" fill="black"/>
<path d="M143 30.7176H138.104C136.182 30.7176 134.74 32.0108 134.74 33.9355C134.74 35.2136 135.341 36.1759 136.407 36.7173L135.1 39.0329H136.782L137.849 37.0781H141.468V39.0329H143V30.7176ZM141.468 32.116V35.6797H138.179C137.038 35.6797 136.272 35.0632 136.272 33.9355C136.272 32.8228 137.038 32.116 138.179 32.116H141.468Z" fill="black"/>
<path d="M42.0098 45.7543V54.0696H43.5266V50.3556H46.4703L48.7831 54.0696H50.5854L47.7318 49.6037L50.3751 45.7543H48.6179L46.4252 48.9722H43.5266V45.7543H42.0098Z" fill="black"/>
<path d="M52.484 49.9195C52.484 48.0098 53.8507 46.8821 55.5929 46.8821C57.3501 46.8821 58.7168 48.0098 58.7168 49.9195C58.7168 51.8292 57.3501 52.9569 55.5929 52.9569C53.8507 52.9569 52.484 51.8292 52.484 49.9195ZM60.2336 49.9195C60.2336 47.2881 58.1611 45.5588 55.5929 45.5588C53.0247 45.5588 50.9522 47.2881 50.9522 49.9195C50.9522 52.5509 53.0247 54.2801 55.5929 54.2801C58.1611 54.2801 60.2336 52.5509 60.2336 49.9195Z" fill="black"/>
<path d="M61.663 45.7543V54.0696H63.1348V47.6489H63.3L66.4389 54.0696H67.8056L70.9595 47.6489H71.1097V54.0696H72.6265V45.7543H70.4639L67.2048 52.2953H67.1297L63.8857 45.7543H61.663Z" fill="black"/>
<path d="M74.2176 45.7543V54.0696H75.7344V47.1227H80.8107V54.0696H82.3276V45.7543H74.2176Z" fill="black"/>
<path d="M88.2068 47.1227H89.153L90.8951 51.4081H86.4196L88.2068 47.1227ZM87.2756 45.7543L83.6411 54.0696H85.2782L85.8489 52.7614H91.5109L92.0816 54.0696H93.6886L90.1592 45.7543H87.2756Z" fill="black"/>
<path d="M94.9854 45.7543V54.0696H96.5173V50.4458H101.849V54.0696H103.366V45.7543H101.849V49.0774H96.5173V45.7543H94.9854Z" fill="black"/>
<path d="M104.973 45.7543V54.0696H106.505L112.032 47.8144V54.0696H113.549V45.7543H112.032L106.49 52.0397V45.7543H104.973Z" fill="black"/>
<path d="M123.112 45.7543H118.216C116.294 45.7543 114.852 47.0475 114.852 48.9722C114.852 50.2503 115.453 51.2126 116.519 51.754L115.212 54.0696H116.894L117.961 52.1148H121.58V54.0696H123.112V45.7543ZM121.58 47.1527V50.7164H118.291C117.15 50.7164 116.384 50.0999 116.384 48.9722C116.384 47.8595 117.15 47.1527 118.291 47.1527H121.58Z" fill="black"/>
<path d="M15.899 8.10133L38.2949 0L23.2346 53.8799L0.833395 62L15.899 8.10133Z" fill="#0047FF"/>
<path d="M14.7311 12.2794L38.2949 0L34.1205 14.9344L10.5567 27.2137L14.7311 12.2794Z" fill="#001C80"/>
<path d="M4.1744 12.2794L38.2949 0L34.1205 14.9344L0 27.2137L4.1744 12.2794Z" fill="#0047FF"/>
</svg>
