<?xml version="1.0" encoding="utf-8"?><svg viewBox="0 0 48 48" xmlns="http://www.w3.org/2000/svg" xmlns:xlink="http://www.w3.org/1999/xlink"><style>:root>svg{display:none}:root>svg:target{display:block}</style><svg viewBox="0 0 24 24" id="close" xmlns="http://www.w3.org/2000/svg"><path d="M4.222 2.808l16.97 16.97-1.414 1.415-16.97-16.97z"/><path d="M2.808 19.778l16.97-16.97 1.415 1.413L4.222 21.192z"/></svg><svg viewBox="0 0 24 24" id="magnifier" xmlns="http://www.w3.org/2000/svg"><path d="M16.657 16.657A8 8 0 105.343 5.343a8 8 0 0011.314 11.314zm0 0l4.242 4.242" stroke="#000" stroke-width="2"/></svg><svg viewBox="0 0 16 14" id="telegram" xmlns="http://www.w3.org/2000/svg"><path d="M.283 6.713l3.686 1.383 1.427 4.612c.092.295.451.404.69.208l2.055-1.683a.61.61 0 01.747-.021l3.707 2.704a.434.434 0 00.68-.264L15.991.526a.435.435 0 00-.582-.496L.279 5.896a.438.438 0 00.004.817zm4.883.647l7.206-4.46c.13-.08.262.096.151.2L6.577 8.655a1.24 1.24 0 00-.382.74l-.203 1.51c-.027.2-.308.22-.364.026L4.85 8.18a.73.73 0 01.317-.82z"/></svg><svg viewBox="0 0 48 48" id="video" xmlns="http://www.w3.org/2000/svg"><circle cx="24" cy="24" r="24"/><path d="M18 15.732l15 8.66-15 8.66v-17.32z" stroke="#fff" stroke-width="2"/></svg><svg viewBox="0 0 32 32" id="vk" xmlns="http://www.w3.org/2000/svg"><path fill-rule="evenodd" clip-rule="evenodd" d="M2.25 2.25C0 4.498 0 8.12 0 15.36v1.28c0 7.24 0 10.861 2.25 13.11C4.498 32 8.12 32 15.36 32h1.28c7.24 0 10.861 0 13.11-2.25C32 27.502 32 23.88 32 16.64v-1.28c0-7.24 0-10.861-2.25-13.11C27.502 0 23.88 0 16.64 0h-1.28C8.12 0 4.499 0 2.25 2.25zM5.4 9.732c.173 8.32 4.333 13.32 11.627 13.32h.413v-4.76c2.68.267 4.707 2.227 5.52 4.76h3.787c-1.04-3.786-3.774-5.88-5.48-6.68 1.706-.986 4.106-3.386 4.68-6.64h-3.44c-.747 2.64-2.96 5.04-5.067 5.267V9.733h-3.44v9.227c-2.133-.533-4.827-3.12-4.947-9.227H5.401z"/></svg><svg viewBox="0 0 18 18" id="whatsapp" xmlns="http://www.w3.org/2000/svg"><path d="M17 8.794c0 4.304-3.516 7.794-7.855 7.794a7.867 7.867 0 01-3.796-.97L1 17l1.418-4.182A7.712 7.712 0 011.29 8.794C1.29 4.489 4.807 1 9.145 1 13.485 1 17 4.49 17 8.794zM9.145 2.241c-3.641 0-6.603 2.94-6.603 6.553 0 1.434.467 2.762 1.258 3.842l-.825 2.433 2.537-.806a6.6 6.6 0 003.634 1.084c3.64 0 6.603-2.94 6.603-6.553s-2.962-6.553-6.604-6.553zm3.967 8.348c-.049-.08-.177-.128-.37-.223-.192-.095-1.139-.558-1.315-.621-.176-.064-.305-.096-.433.095s-.498.621-.61.749c-.112.128-.225.144-.417.048-.193-.095-.813-.297-1.548-.948a5.76 5.76 0 01-1.071-1.323c-.113-.19-.012-.294.084-.39.087-.085.193-.222.289-.334.096-.112.128-.191.192-.319.065-.127.033-.239-.016-.334-.048-.096-.433-1.036-.594-1.419-.16-.382-.32-.318-.433-.318-.112 0-.24-.016-.369-.016a.71.71 0 00-.513.239c-.177.191-.674.653-.674 1.593s.69 1.849.786 1.976c.096.127 1.332 2.119 3.29 2.884 1.957.765 1.957.51 2.31.477.352-.031 1.139-.461 1.3-.907.16-.447.16-.83.112-.909z"/></svg></svg>