<svg width="18" height="18" viewBox="0 0 18 18" fill="none" xmlns="http://www.w3.org/2000/svg">
<path fill-rule="evenodd" clip-rule="evenodd" d="M14.625 15C16.4865 15 18 13.485 18 11.625V8.99999C18 4.0365 13.9635 0 9 0C4.0365 0 0 4.0365 0 8.99999C0 13.9635 4.0365 18 9 18C9.621 18 10.125 17.496 10.125 16.875C10.125 16.254 9.621 15.75 9 15.75C5.2785 15.75 2.25 12.7215 2.25 8.99999C2.25 5.2785 5.2785 2.25 9 2.25C12.7215 2.25 15.75 5.2785 15.75 8.99999V11.625C15.75 12.2445 15.246 12.75 14.625 12.75C14.004 12.75 13.5 12.2445 13.5 11.625V8.99999C13.5 6.51899 11.481 4.5 9 4.5C6.519 4.5 4.5 6.51899 4.5 8.99999C4.5 11.481 6.519 13.5 9 13.5C9.909 13.5 10.752 13.224 11.46 12.7605C11.9295 14.061 13.164 15 14.625 15ZM8.96484 11.25C10.1881 11.25 11.1797 10.2269 11.1797 8.96485C11.1797 7.70279 10.1881 6.67969 8.96484 6.67969C7.74162 6.67969 6.75 7.70279 6.75 8.96485C6.75 10.2269 7.74162 11.25 8.96484 11.25Z" fill="black"/>
</svg>
