<svg width="25" height="24" viewBox="0 0 25 24" fill="none" xmlns="http://www.w3.org/2000/svg">
<path d="M10.6365 3.5L11.3865 0.5H14.6057L15.3557 3.5H10.6365Z" stroke="black"/>
<path d="M23.1588 10.7905C23.5836 11.8161 23.85 12.8983 23.9505 14L2.04164 14C2.14221 12.8983 2.4086 11.8161 2.83342 10.7905C3.38622 9.4559 4.19647 8.24327 5.21792 7.22183C6.23936 6.20038 7.45199 5.39013 8.78658 4.83733C10.1212 4.28452 11.5516 4 12.9961 4C14.4406 4 15.871 4.28452 17.2056 4.83732C18.5402 5.39013 19.7528 6.20038 20.7743 7.22183C21.7957 8.24327 22.606 9.4559 23.1588 10.7905Z" stroke="black" stroke-width="2"/>
<mask id="path-3-inside-1_3400_4488" fill="white">
<path d="M8 14C8 14.6566 8.12933 15.3068 8.3806 15.9134C8.63188 16.52 9.00017 17.0712 9.46447 17.5355C9.92876 17.9998 10.48 18.3681 11.0866 18.6194C11.6932 18.8707 12.3434 19 13 19C13.6566 19 14.3068 18.8707 14.9134 18.6194C15.52 18.3681 16.0712 17.9998 16.5355 17.5355C16.9998 17.0712 17.3681 16.52 17.6194 15.9134C17.8707 15.3068 18 14.6566 18 14L13 14L8 14Z"/>
</mask>
<path d="M8 14C8 14.6566 8.12933 15.3068 8.3806 15.9134C8.63188 16.52 9.00017 17.0712 9.46447 17.5355C9.92876 17.9998 10.48 18.3681 11.0866 18.6194C11.6932 18.8707 12.3434 19 13 19C13.6566 19 14.3068 18.8707 14.9134 18.6194C15.52 18.3681 16.0712 17.9998 16.5355 17.5355C16.9998 17.0712 17.3681 16.52 17.6194 15.9134C17.8707 15.3068 18 14.6566 18 14L13 14L8 14Z" stroke="black" stroke-width="2" mask="url(#path-3-inside-1_3400_4488)"/>
<path d="M13 20V23" stroke="black"/>
<path d="M9.75 19.2009L8.25 21.799" stroke="black"/>
<path d="M16 19.2009L17.5 21.799" stroke="black"/>
<path d="M7.59766 17L4.99958 18.5" stroke="black"/>
<path d="M18.1523 17L20.7504 18.5" stroke="black"/>
</svg>
