<svg width="42" height="42" viewBox="0 0 42 42" fill="none" xmlns="http://www.w3.org/2000/svg">
<rect x="1.5" y="1.5" width="39" height="39" stroke="black" stroke-dasharray="5 5"/>
<rect x="1.5" y="23.4048" width="17.0952" height="17.0952" stroke="black"/>
<path d="M21.5 20C21.5 20.2761 21.7239 20.5 22 20.5H26.5C26.7761 20.5 27 20.2761 27 20C27 19.7239 26.7761 19.5 26.5 19.5H22.5V15.5C22.5 15.2239 22.2761 15 22 15C21.7239 15 21.5 15.2239 21.5 15.5V20ZM36 6.5C36 6.22386 35.7761 6 35.5 6H31C30.7239 6 30.5 6.22386 30.5 6.5C30.5 6.77614 30.7239 7 31 7H35V11C35 11.2761 35.2239 11.5 35.5 11.5C35.7761 11.5 36 11.2761 36 11V6.5ZM22.3536 20.3536L35.8536 6.85355L35.1464 6.14645L21.6464 19.6464L22.3536 20.3536Z" fill="black"/>
</svg>
