<svg width="240" height="186" viewBox="0 0 240 186" fill="none" xmlns="http://www.w3.org/2000/svg">
<path d="M0 0H240L220.567 139H19.4332L0 0Z" fill="#F6F6F6"/>
<path d="M131.057 21.0417C134.63 24.5474 136.989 31.8945 137 46.2701L108.818 179.003C107.847 172.41 106.564 167.273 104.955 163.3C102.89 158.199 100.263 154.955 97.0173 153.036C93.7845 151.124 90.0674 150.604 85.9796 150.692C82.6871 150.762 79.0596 151.232 75.1695 151.737C74.2527 151.855 73.3213 151.976 72.3763 152.094C68.5666 152.569 65.927 151.945 63.6696 150.78C61.8157 149.823 60.2165 148.508 58.3915 147.009C57.9246 146.625 57.443 146.229 56.9386 145.824C54.497 143.864 51.6398 141.798 47.6206 140.234C43.6052 138.671 38.4819 137.626 31.5092 137.626C27.3347 137.547 26.7719 137.557 25.5004 137.581C24.61 137.598 23.372 137.621 20.3027 137.625L1.14996 1.00028L11.375 1.00026L22 1.00024C31.6707 1.00024 40.3866 1.46295 48.9924 3.83877C57.5823 6.21022 66.1093 10.5017 75.3593 18.2206C81.7741 23.5736 89.0297 24.3234 96.1445 23.4554C99.6935 23.0224 103.232 22.1844 106.634 21.3048C107.476 21.0871 108.307 20.8675 109.129 20.6505C111.648 19.9851 114.069 19.3455 116.389 18.8687C122.584 17.5958 127.554 17.604 131.057 21.0417Z" fill="white" stroke="black" stroke-width="2"/>
</svg>
