<svg width="21" height="20" viewBox="0 0 21 20" fill="none" xmlns="http://www.w3.org/2000/svg">
<path fill-rule="evenodd" clip-rule="evenodd" d="M5.75391 0.672269C4.28195 0.842074 3.03695 1.34411 2.01254 2.18094C1.33539 2.73414 0.803672 3.54739 0.588125 4.3595L0.5 4.69153V10.0431C0.5 15.0729 0.504258 15.4145 0.571133 15.7248C0.872617 17.1238 1.73984 18.2507 3.00102 18.8823C3.28758 19.0259 3.92453 19.2254 4.26953 19.2798C4.43672 19.3062 7.24828 19.3199 12.502 19.3201L20.4805 19.3204V13.9886V8.65676L16.584 8.6468L12.6875 8.63684L12.6658 6.60559C12.6539 5.4884 12.6303 4.53039 12.6134 4.47668C12.5964 4.42297 12.5468 4.26477 12.5031 4.12512C12.0589 2.70454 10.6233 1.47641 8.78375 0.943363C8.07961 0.739301 7.63348 0.679379 6.73047 0.667504C6.26855 0.661449 5.8291 0.663598 5.75391 0.672269ZM7.80469 1.91161C9.40348 2.21821 10.7123 3.05746 11.2248 4.10477C11.4229 4.50946 11.4961 4.80672 11.4961 5.20563C11.4961 5.64446 11.441 5.88008 11.2419 6.29309C10.5655 7.69598 8.73148 8.61844 6.61398 8.62086C5.75551 8.62184 5.22652 8.54286 4.50246 8.30559C3.2823 7.90579 2.37418 7.20594 1.9418 6.33215C1.40758 5.2527 1.63711 4.16723 2.59523 3.24192C3.35645 2.50676 4.50613 2.00457 5.79297 1.84516C6.09973 1.80715 7.50141 1.85344 7.80469 1.91161ZM5.76438 3.07153C5.58754 3.11145 5.2975 3.21278 5.11984 3.29664C4.5068 3.58618 4.13191 3.94661 3.87125 4.49707C3.74848 4.75633 3.74219 4.79161 3.74219 5.21887C3.74219 5.65434 3.74648 5.67707 3.88281 5.96106C4.1391 6.49504 4.47527 6.8286 5.04367 7.11297C5.49016 7.33633 5.99367 7.44836 6.55488 7.4493C7.52367 7.45086 8.24703 7.18196 8.82895 6.60391C9.46844 5.96868 9.62172 5.15227 9.24352 4.39625C8.91105 3.73172 8.19801 3.23723 7.30828 3.05422C6.8975 2.96973 6.17941 2.97778 5.76438 3.07153ZM7.35547 4.27657C8.28766 4.58254 8.55406 5.36411 7.90188 5.87961C7.56586 6.14524 7.11254 6.27887 6.55516 6.27668C5.82801 6.27379 5.20371 5.97715 4.96934 5.52317C4.70676 5.01446 5.17082 4.43039 6.00781 4.21625C6.305 4.1402 7.04023 4.17309 7.35547 4.27657ZM2.14062 8.37079C3.14785 9.1868 4.57902 9.69313 6.14812 9.78856C6.52754 9.81165 9.34316 9.8277 13.0488 9.8279L19.3086 9.82825V13.9884V18.1486H18.332H17.3555V16.3126V14.4767H16.7695H16.1836V16.3126V18.1486H15.1875H14.1914V16.3126V14.4767H13.6055H13.0195V16.3126V18.1486H12.043H11.0664V15.4532V12.7579H10.4805H9.89453V15.4532V18.1486H8.91797H7.94141V16.3126V14.4767H7.35547H6.76953V16.3126V18.1486H5.77344H4.77734V16.3126V14.4767H4.19141H3.60547V16.1788V17.8809L3.38086 17.7538C2.56047 17.2898 1.99746 16.559 1.74098 15.6251C1.68516 15.422 1.67598 14.9529 1.66332 11.6644L1.64898 7.93411L1.79715 8.07333C1.87863 8.14993 2.0332 8.28375 2.14062 8.37079ZM11.4961 8.30481V8.65637H11.1055C10.8906 8.65637 10.7155 8.64317 10.7164 8.62708C10.7173 8.61098 10.822 8.5202 10.9491 8.42536C11.0762 8.33055 11.2461 8.18555 11.3266 8.10309C11.407 8.02067 11.4781 7.95325 11.4845 7.95325C11.4909 7.95325 11.4961 8.11145 11.4961 8.30481Z" fill="white"/>
</svg>
